#!OML:ASF E:\Style4\Style4.ASF
:FULLY-SPECIFIED
:DEGREES
1131
root -0.0605185 17.1455 -1.58362 8.14613 0.927163 3.63347
lowerback 6.08185 1.5942 -1.01102
upperback 0.0746242 1.99893 -1.56807
thorax -3.31082 0.998149 -1.22623
lowerneck 2.90065 -4.70175 -8.29932
upperneck 7.06126 -6.6601 5.47166
head 2.28826 -3.43132 3.16304
rclavicle 1.01877e-015 3.37934e-015
rhumerus -92.3072 57.2204 -129.276
rradius 86.0426
rwrist 2.2562
rhand -15.6841 37.4691
rfingers 7.12502
rthumb 10.5049 7.75164
lclavicle 1.01877e-015 3.37934e-015
lhumerus -37.0706 23.7001 24.0465
lradius 118.566
lwrist -14.7273
lhand -11.0826 35.0198
lfingers 7.12502
lthumb 14.9409 64.4609
rfemur -29.082 -1.72609 14.4798
rtibia 49.3052
rfoot -26.377 -14.6
rtoes -11.3089
lfemur -27.4345 -1.74407 -22.6336
ltibia 45.9732
lfoot -25.1279 6.28956
ltoes -16.8045
1132
root -0.0628534 17.144 -1.58278 8.12894 0.932706 3.59685
lowerback 6.0933 1.5928 -1.02028
upperback 0.0796671 1.99616 -1.57035
thorax -3.31231 0.996889 -1.22342
lowerneck 2.93178 -4.70133 -8.23322
upperneck 7.02574 -6.65662 5.41011
head 2.2645 -3.42895 3.13029
rclavicle 5.8393e-015 -5.86415e-015
rhumerus -92.3254 57.1918 -129.308
rradius 86.0147
rwrist 2.33401
rhand -15.7423 37.4968
rfingers 7.12502
rthumb 10.4487 7.77645
lclavicle 5.8393e-015 -5.86415e-015
lhumerus -37.0421 23.6791 23.9983
lradius 118.557
lwrist -14.7056
lhand -10.9584 35.0741
lfingers 7.12502
lthumb 15.0605 64.5062
rfemur -29.0489 -1.71733 14.5255
rtibia 49.2942
rfoot -26.4031 -14.562
rtoes -11.111
lfemur -27.442 -1.71827 -22.5933
ltibia 46.0272
lfoot -25.1809 6.40163
ltoes -17.2635
1133
root -0.0650188 17.1437 -1.58365 8.08798 0.977682 3.50979
lowerback 6.14955 1.58824 -0.941758
upperback 0.100163 1.99492 -1.5676
thorax -3.32008 0.995016 -1.26583
lowerneck 2.93347 -4.71314 -8.14983
upperneck 6.97733 -6.66713 5.35433
head 2.24233 -3.43251 3.09537
rclavicle -1.31198e-014 1.37161e-014
rhumerus -92.2411 57.1881 -129.248
rradius 85.9904
rwrist 2.40047
rhand -15.8682 37.5136
rfingers 7.12502
rthumb 10.3273 7.78719
lclavicle -1.31198e-014 1.37161e-014
lhumerus -36.958 23.6671 24.0183
lradius 118.573
lwrist -14.6921
lhand -10.9542 35.1317
lfingers 7.12502
lthumb 15.0646 64.5636
rfemur -28.9851 -1.74763 14.6372
rtibia 49.2559
rfoot -26.3559 -14.5962
rtoes -11.1021
lfemur -27.4392 -1.69924 -22.4932
ltibia 46.096
lfoot -25.1657 6.42507
ltoes -17.3214
1134
root -0.0682121 17.1441 -1.58444 8.09045 1.01008 3.45498
lowerback 6.16447 1.57972 -0.913302
upperback 0.123623 1.98568 -1.56783
thorax -3.30335 0.990001 -1.28116
lowerneck 2.83651 -4.71228 -8.17246
upperneck 6.99019 -6.66214 5.40028
head 2.26693 -3.42876 3.11321
rclavicle -3.21286e-014 2.39536e-014
rhumerus -92.1638 57.2227 -129.18
rradius 85.9991
rwrist 2.34307
rhand -15.8807 37.4947
rfingers 7.12502
rthumb 10.3153 7.76769
lclavicle -3.21286e-014 2.39536e-014
lhumerus -36.8802 23.7131 24.0444
lradius 118.571
lwrist -14.6256
lhand -10.973 35.1423
lfingers 7.12502
lthumb 15.0465 64.5756
rfemur -29.0182 -1.74805 14.7157
rtibia 49.2214
rfoot -26.2488 -14.7185
rtoes -11.6501
lfemur -27.488 -1.73275 -22.4147
ltibia 46.1681
lfoot -25.1398 6.33576
ltoes -16.8073
1135
root -0.0723821 17.1449 -1.5835 8.14463 0.985358 3.36224
lowerback 6.11741 1.59566 -0.885231
upperback 0.119032 2.01012 -1.55657
thorax -3.28077 1.00186 -1.28597
lowerneck 2.75058 -4.71955 -8.25263
upperneck 7.08257 -6.67318 5.47766
head 2.32168 -3.43471 3.15229
rclavicle -9.01985e-015 -1.38155e-014
rhumerus -92.1478 57.2261 -129.167
rradius 85.9995
rwrist 2.26231
rhand -15.8021 37.4091
rfingers 7.12502
rthumb 10.3911 7.68589
lclavicle -9.01985e-015 -1.38155e-014
lhumerus -36.8321 23.7031 24.0334
lradius 118.546
lwrist -14.592
lhand -10.9864 35.1928
lfingers 7.12502
lthumb 15.0336 64.627
rfemur -29.1143 -1.70945 14.8349
rtibia 49.2062
rfoot -26.1584 -14.8125
rtoes -12.2465
lfemur -27.5825 -1.71199 -22.2929
ltibia 46.2362
lfoot -25.2253 6.31671
ltoes -16.7821
1136
root -0.0770112 17.1424 -1.58328 8.16739 0.990177 3.31298
lowerback 6.09253 1.58544 -0.918528
upperback 0.120864 1.99507 -1.54459
thorax -3.26671 0.994999 -1.25278
lowerneck 2.76452 -4.72878 -8.28488
upperneck 7.10009 -6.68618 5.46013
head 2.32676 -3.44263 3.1522
rclavicle -8.19987e-015 8.94531e-016
rhumerus -92.1608 57.2742 -129.192
rradius 85.981
rwrist 2.24902
rhand -15.7535 37.4359
rfingers 7.12502
rthumb 10.438 7.715
lclavicle -8.19987e-015 8.94531e-016
lhumerus -36.9068 23.653 23.9199
lradius 118.548
lwrist -14.5821
lhand -11.0455 35.3076
lfingers 7.12502
lthumb 14.9766 64.746
rfemur -29.1125 -1.72201 14.915
rtibia 49.2309
rfoot -26.2539 -14.7198
rtoes -11.9738
lfemur -27.6485 -1.66509 -22.2231
ltibia 46.3024
lfoot -25.2544 6.35273
ltoes -17.0586
1137
root -0.0822731 17.141 -1.58435 8.15902 1.04168 3.28617
lowerback 6.13494 1.54904 -0.991563
upperback 0.119625 1.94089 -1.53346
thorax -3.29535 0.969192 -1.19704
lowerneck 2.74984 -4.71358 -8.25338
upperneck 7.10789 -6.664 5.44728
head 2.32819 -3.43089 3.142
rclavicle -1.74309e-014 -5.86415e-015
rhumerus -92.1621 57.3441 -129.234
rradius 85.9428
rwrist 2.25413
rhand -15.6904 37.4306
rfingers 7.12502
rthumb 10.4988 7.71275
lclavicle -1.74309e-014 -5.86415e-015
lhumerus -37.0028 23.6167 23.8023
lradius 118.536
lwrist -14.6362
lhand -11.1126 35.3883
lfingers 7.12502
lthumb 14.912 64.8315
rfemur -29.0823 -1.72968 14.9747
rtibia 49.264
rfoot -26.3812 -14.6401
rtoes -11.4892
lfemur -27.6862 -1.67289 -22.1668
ltibia 46.3637
lfoot -25.2613 6.34818
ltoes -17.1214
